<svg width="215" height="207" viewBox="0 0 215 207" fill="none" xmlns="http://www.w3.org/2000/svg">
<rect width="215" height="207" fill="white"/>
<path d="M181.598 79.6196C181.624 91.4808 177.178 102.891 169.193 111.455C150.886 130.965 133.126 151.307 114.143 170.1C109.786 174.34 102.878 174.185 98.7156 169.753L44.0031 111.463C27.4656 93.8415 27.4656 65.3977 44.0031 47.7842C47.9117 43.5677 52.6126 40.2109 57.821 37.9173C63.0294 35.6237 68.6368 34.4411 74.3031 34.4411C79.9695 34.4411 85.5768 35.6237 90.7852 37.9173C95.9936 40.2109 100.695 43.5677 104.603 47.7842L106.598 49.8963L108.586 47.7842C112.502 43.5777 117.204 40.227 122.411 37.933C127.617 35.6389 133.221 34.4486 138.886 34.4333C150.286 34.4333 161.183 39.2433 169.186 47.7842C177.173 56.3469 181.622 67.7573 181.598 79.6196V79.6196Z" stroke="#111111" stroke-width="10" stroke-linejoin="round"/>
</svg>
