<svg width="215" height="207" viewBox="0 0 215 207" fill="none" xmlns="http://www.w3.org/2000/svg">
<g clip-path="url(#clip0_40_2)">
<rect width="215" height="207" fill="white"/>
<path d="M173.944 53.1945C157.555 31.8056 128.111 30.5834 110.611 50.1389C108.111 52.8889 104.222 52.8889 102 50.1389C85.3332 31.5 57.8332 31.5 41.1665 50.1389C26.7221 65.7223 24.4999 91.0834 35.611 109.722C38.9443 115.528 43.3888 120.111 48.111 123.472L103.389 172.667C105.333 174.5 108.111 174.5 110.055 172.667L165.055 123.472C169.778 120.111 173.944 115.833 177.278 110.028C187.278 92.6112 186.167 69.0834 173.944 53.1945V53.1945Z" fill="#FF473E"/>
</g>
<defs>
<clipPath id="clip0_40_2">
<rect width="215" height="207" fill="white"/>
</clipPath>
</defs>
</svg>
