<svg width="100" height="100" viewBox="0 0 100 100" fill="none" xmlns="http://www.w3.org/2000/svg">
<path d="M51.2556 55.2063C51.1974 55.4966 51.0404 55.7578 50.8114 55.9454C50.5824 56.1331 50.2954 56.2356 49.9993 56.2356C49.7032 56.2356 49.4163 56.1331 49.1873 55.9454C48.9582 55.7578 48.8013 55.4966 48.7431 55.2063L43.3993 26.7062C43.2142 25.7348 43.2459 24.7345 43.4919 23.7767C43.738 22.819 44.1925 21.9273 44.8229 21.1654C45.4533 20.4035 46.2441 19.7902 47.1389 19.3692C48.0337 18.9482 49.0104 18.7299 49.9993 18.7299C50.9882 18.7299 51.9649 18.9482 52.8597 19.3692C53.7545 19.7902 54.5453 20.4035 55.1758 21.1654C55.8062 21.9273 56.2606 22.819 56.5067 23.7767C56.7528 24.7345 56.7844 25.7348 56.5993 26.7062L51.2556 55.2063ZM49.9993 12.5C41.8743 12.5 35.7556 19.875 37.2494 27.8562L42.5993 56.3563C42.9255 58.0802 43.8433 59.6362 45.1943 60.7556C46.5453 61.875 48.2448 62.4876 49.9993 62.4876C51.7538 62.4876 53.4533 61.875 54.8043 60.7556C56.1554 59.6362 57.0732 58.0802 57.3993 56.3563L62.743 27.8562C63.0937 25.9837 63.0276 24.0569 62.5493 22.2129C62.0711 20.3688 61.1924 18.6528 59.9758 17.1868C58.7592 15.7207 57.2345 14.5408 55.5102 13.7307C53.786 12.9207 51.9044 12.5005 49.9993 12.5V12.5Z" fill="#111111"/>
<path d="M50 81.25C49.1712 81.25 48.3763 80.9208 47.7903 80.3347C47.2042 79.7487 46.875 78.9538 46.875 78.125C46.875 77.2962 47.2042 76.5013 47.7903 75.9153C48.3763 75.3292 49.1712 75 50 75C50.8288 75 51.6237 75.3292 52.2097 75.9153C52.7958 76.5013 53.125 77.2962 53.125 78.125C53.125 78.9538 52.7958 79.7487 52.2097 80.3347C51.6237 80.9208 50.8288 81.25 50 81.25ZM50 87.5C51.2311 87.5 52.4502 87.2575 53.5877 86.7864C54.7251 86.3152 55.7586 85.6247 56.6291 84.7541C57.4997 83.8836 58.1902 82.8501 58.6614 81.7127C59.1325 80.5752 59.375 79.3561 59.375 78.125C59.375 76.8939 59.1325 75.6748 58.6614 74.5373C58.1902 73.3999 57.4997 72.3664 56.6291 71.4959C55.7586 70.6253 54.7251 69.9348 53.5877 69.4636C52.4502 68.9925 51.2311 68.75 50 68.75C47.5136 68.75 45.129 69.7377 43.3709 71.4959C41.6127 73.254 40.625 75.6386 40.625 78.125C40.625 80.6114 41.6127 82.996 43.3709 84.7541C45.129 86.5123 47.5136 87.5 50 87.5V87.5Z" fill="#111111"/>
</svg>
