<svg width="363" height="363" viewBox="0 0 363 363" fill="none" xmlns="http://www.w3.org/2000/svg">
<path d="M148.793 151.344C148.793 146.329 146.801 141.521 143.256 137.975C139.71 134.429 134.901 132.437 129.887 132.437C124.873 132.437 120.064 134.429 116.518 137.975C112.973 141.521 110.981 146.329 110.981 151.344C110.981 156.358 112.973 161.167 116.518 164.712C120.064 168.258 124.873 170.25 129.887 170.25C134.901 170.25 139.71 168.258 143.256 164.712C146.801 161.167 148.793 156.358 148.793 151.344V151.344ZM239.543 151.344C239.543 146.329 237.551 141.521 234.006 137.975C230.46 134.429 225.651 132.437 220.637 132.437C215.623 132.437 210.814 134.429 207.268 137.975C203.723 141.521 201.731 146.329 201.731 151.344C201.731 156.358 203.723 161.167 207.268 164.712C210.814 168.258 215.623 170.25 220.637 170.25C225.651 170.25 230.46 168.258 234.006 164.712C237.551 161.167 239.543 156.358 239.543 151.344ZM231.981 211.844C219.124 211.844 205.406 215.08 193.533 219.709C181.796 224.276 170.649 230.659 163.449 237.859C162.335 238.897 161.441 240.15 160.821 241.541C160.201 242.933 159.867 244.435 159.841 245.958C159.814 247.481 160.094 248.994 160.664 250.406C161.235 251.819 162.084 253.102 163.161 254.179C164.239 255.256 165.522 256.106 166.934 256.676C168.347 257.247 169.86 257.527 171.383 257.5C172.906 257.473 174.408 257.14 175.799 256.52C177.191 255.9 178.443 255.006 179.482 253.891C183.641 249.747 191.642 244.786 201.761 240.853C211.743 236.966 222.633 234.531 231.981 234.531H241.056C244.064 234.531 246.95 233.336 249.077 231.209C251.204 229.081 252.399 226.196 252.399 223.187C252.399 220.179 251.204 217.294 249.077 215.166C246.95 213.039 244.064 211.844 241.056 211.844H231.981V211.844ZM326.512 181.594C326.527 98.0734 258.797 30.3437 175.262 30.3437C91.7114 30.3437 23.9817 98.0734 23.9817 181.624C23.9817 265.159 91.7114 332.889 175.262 332.889C258.797 332.874 326.512 265.144 326.512 181.609V181.594ZM46.6692 181.594C46.4848 164.59 49.6745 147.719 56.0538 131.957C62.4331 116.194 71.8753 101.854 83.8338 89.7647C95.7924 77.6757 110.03 68.0786 125.722 61.5287C141.414 54.9788 158.25 51.6063 175.254 51.6063C192.259 51.6063 209.094 54.9788 224.787 61.5287C240.479 68.0786 254.716 77.6757 266.675 89.7647C278.633 101.854 288.076 116.194 294.455 131.957C300.834 147.719 304.024 164.59 303.84 181.594C303.472 215.455 289.763 247.805 265.689 271.62C241.614 295.434 209.118 308.792 175.254 308.792C141.391 308.792 108.894 295.434 84.82 271.62C60.7455 247.805 47.0364 215.455 46.6692 181.594V181.594Z" fill="#111111"/>
</svg>
